<?xml version="1.0" standalone="no"?>
<!DOCTYPE svg PUBLIC "-//W3C//DTD SVG 20010904//EN"
 "http://www.w3.org/TR/2001/REC-SVG-20010904/DTD/svg10.dtd">
<svg version="1.0" xmlns="http://www.w3.org/2000/svg"
 width="272.000000pt" height="272.000000pt" viewBox="0 0 272.000000 272.000000"
 preserveAspectRatio="xMidYMid meet">
<metadata>
Created by potrace 1.14, written by Peter Selinger 2001-2017
</metadata>
<g transform="translate(0.000000,272.000000) scale(0.100000,-0.100000)"
fill="#000000" stroke="none">
<path d="M0 2590 c0 -119 1 -129 18 -123 9 3 22 9 27 13 6 5 27 17 48 29 20
12 53 30 73 41 66 38 313 126 429 154 l60 14 -147 1 c-104 0 -148 -4 -152 -12
-3 -9 -5 -9 -5 1 -1 9 -43 12 -176 12 l-175 0 0 -130z"/>
<path d="M1562 2712 c-7 -2 -12 -12 -12 -23 0 -13 -5 -17 -17 -12 -11 4 -14 3
-9 -5 5 -8 1 -11 -11 -9 -10 1 -18 -2 -18 -8 0 -5 4 -9 9 -7 6 2 24 5 40 8
l31 4 -32 -10 c-18 -6 -33 -13 -33 -15 0 -7 54 0 68 9 8 5 10 2 6 -8 -5 -13 0
-15 24 -10 19 4 43 0 62 -10 18 -9 37 -13 42 -10 5 3 15 0 23 -6 8 -7 15 -10
15 -6 0 10 83 -26 117 -51 17 -12 38 -23 45 -23 14 0 89 -38 98 -49 7 -9 109
-81 115 -81 9 0 78 -76 105 -115 65 -96 75 -212 26 -327 -31 -73 -86 -143
-155 -198 -17 -14 -37 -29 -44 -35 -44 -35 -203 -110 -307 -145 -36 -12 -70
-26 -76 -31 -6 -5 -13 -6 -16 -4 -5 5 -99 -7 -158 -21 -48 -10 -136 -16 -285
-17 -130 -2 -187 1 -328 18 -48 5 -43 15 9 16 27 1 87 3 134 4 96 2 170 12
207 26 13 5 34 9 45 9 21 0 88 27 138 55 14 8 40 22 58 32 24 12 32 24 34 45
0 15 1 33 2 38 1 6 -3 11 -9 12 -5 0 -14 7 -20 14 -5 7 -41 22 -79 33 -38 12
-75 26 -81 31 -7 6 -24 6 -46 0 -21 -6 -42 -7 -54 -1 -17 7 -80 18 -224 36
-13 2 -27 7 -32 12 -4 4 49 9 119 9 130 2 285 19 332 37 8 3 47 15 86 26 75
22 219 93 244 121 8 9 26 22 38 29 13 7 21 15 18 18 -3 3 1 12 9 19 7 8 22 38
33 66 25 66 17 129 -21 180 -15 19 -27 40 -27 47 0 13 -118 91 -137 91 -7 0
-13 5 -13 12 0 6 -3 8 -6 5 -4 -4 -19 0 -33 8 -14 7 -51 21 -81 31 -30 9 -59
20 -65 24 -5 3 -26 8 -45 9 -57 3 -71 7 -80 21 -7 12 -10 11 -15 -3 -4 -9 -17
-16 -28 -16 -69 1 -154 -15 -174 -34 -33 -29 -16 -48 66 -76 38 -13 69 -29 68
-35 -1 -6 7 -11 18 -11 11 0 25 -5 30 -11 6 -6 33 -16 61 -22 28 -6 79 -27
113 -47 66 -39 135 -94 127 -102 -3 -3 0 -17 5 -31 14 -37 -7 -110 -42 -142
-81 -77 -123 -97 -269 -125 -110 -21 -98 -20 -152 -11 -26 5 -56 5 -65 1 -10
-5 -21 -8 -24 -7 -4 1 -19 3 -34 6 -15 3 -30 8 -33 11 -6 5 -2 6 64 10 56 4
162 59 169 88 3 12 -1 38 -9 58 -14 34 -42 57 -128 108 -26 16 -35 27 -31 38
4 9 2 14 -3 11 -16 -10 -71 19 -76 40 -13 48 39 86 136 98 22 3 44 8 49 11 4
3 23 7 40 10 46 7 49 16 5 11 -21 -2 -38 0 -38 5 0 4 -4 6 -9 2 -5 -3 -51 -7
-103 -9 -207 -10 -378 -89 -425 -197 -32 -76 2 -155 88 -199 19 -10 41 -25 48
-34 7 -8 19 -12 27 -9 9 3 14 -1 14 -12 0 -14 6 -16 35 -11 21 4 35 3 35 -3 0
-6 7 -8 15 -5 9 4 15 0 15 -10 0 -11 9 -16 30 -16 17 0 30 -4 30 -9 0 -5 6 -9
13 -8 38 1 67 -4 67 -12 0 -9 -189 -5 -198 4 -3 2 -14 0 -25 -6 -14 -8 -18 -8
-13 0 4 6 1 11 -8 11 -8 0 -17 -6 -19 -12 -4 -10 -6 -10 -6 0 -1 6 -12 12 -26
12 -14 0 -25 5 -25 10 0 6 -6 10 -12 9 -24 -4 -73 14 -141 53 -38 21 -72 38
-76 38 -10 0 -48 45 -89 103 -36 53 -41 102 -20 185 9 35 25 60 74 107 34 34
77 68 96 75 18 7 58 24 88 38 99 45 323 83 492 82 96 0 116 3 114 15 -2 17
-16 33 -16 19 0 -9 -208 -9 -217 0 -13 13 -305 -35 -443 -73 -257 -70 -397
-143 -533 -276 l-47 -46 0 -193 c0 -178 1 -194 20 -214 11 -12 20 -26 20 -32
0 -15 42 -60 56 -60 6 0 15 -7 18 -15 3 -9 18 -21 33 -28 51 -23 103 -59 102
-70 0 -8 -2 -7 -6 1 -3 9 -9 10 -17 2 -7 -5 -28 -8 -47 -6 -19 2 -42 4 -52 5
-10 0 -16 5 -13 9 2 4 -5 9 -16 9 -11 1 -30 11 -42 22 -12 12 -30 21 -39 21
-16 0 -17 -60 -17 -865 l0 -866 578 4 c317 2 595 7 616 10 21 4 62 14 90 24
28 9 53 17 56 18 14 2 43 24 33 25 -7 0 -13 5 -13 11 0 5 4 7 10 4 5 -3 18 -1
27 4 16 9 15 11 -7 12 l-25 1 25 8 c23 7 23 8 3 9 -12 1 -25 6 -28 11 -3 6
-15 10 -26 10 -12 0 -17 4 -13 11 4 7 0 9 -14 5 -11 -4 -23 -2 -27 4 -3 5 0
10 7 11 22 2 -95 31 -129 33 -17 0 -29 5 -26 9 2 4 -8 5 -23 1 -21 -5 -25 -4
-19 6 6 10 4 12 -8 7 -10 -3 -17 -2 -17 3 0 6 -11 10 -24 10 -14 0 -28 5 -31
10 -4 6 -11 7 -17 4 -6 -4 -14 -1 -18 6 -4 7 -28 15 -54 17 -25 3 -46 9 -46
13 0 4 -12 5 -27 3 -22 -4 -25 -2 -13 6 8 6 12 11 8 12 -40 7 -68 20 -68 31 0
6 8 7 17 3 10 -3 0 10 -22 31 -22 20 -31 30 -21 23 23 -17 19 -17 39 0 9 7 15
17 12 21 -3 5 3 11 12 14 19 6 157 19 186 18 9 0 17 4 17 10 0 7 4 7 13 1 16
-13 80 -16 73 -4 -4 5 2 10 11 10 10 0 31 2 48 5 16 3 35 0 41 -5 13 -10 44
-2 44 12 0 5 3 8 8 7 4 0 15 2 25 7 10 4 23 2 31 -4 7 -6 15 -9 18 -6 2 2 30
6 61 8 30 2 63 9 71 17 13 10 19 10 31 0 8 -7 15 -8 15 -2 0 9 34 20 93 28 15
2 38 9 50 15 12 7 36 12 54 11 21 -1 31 3 27 11 -3 8 7 12 28 13 18 1 37 9 45
20 10 13 13 14 13 3 1 -9 7 -7 19 9 11 12 24 22 29 22 5 0 12 6 15 14 10 26
-5 54 -31 62 -45 12 -55 14 -112 20 -78 9 -95 11 -95 14 0 5 -117 20 -165 20
-14 0 -38 5 -53 11 -21 9 -34 9 -53 0 -20 -9 -26 -8 -30 4 -7 16 -64 21 -64 5
0 -10 -27 -3 -48 13 -18 14 -103 12 -112 -2 -5 -10 -9 -9 -13 3 -3 8 -23 18
-44 21 -21 4 -50 10 -65 15 -30 10 -36 2 -15 -19 17 -18 -20 -4 -56 21 -16 12
-63 25 -112 32 -83 13 -122 26 -74 26 54 0 133 16 137 28 2 6 -3 12 -12 12 -9
0 -16 5 -16 11 0 6 -9 8 -21 4 -14 -5 -19 -4 -15 4 5 7 1 9 -9 5 -8 -4 -21 -1
-29 5 -7 6 -16 8 -19 5 -3 -3 -11 -3 -18 2 -22 13 22 21 81 15 76 -8 188 -2
170 9 -26 16 -2 22 28 6 29 -15 59 -14 105 3 13 5 42 6 65 1 29 -5 47 -3 59 6
10 7 30 10 47 7 18 -4 31 -1 36 7 5 8 27 14 52 14 23 1 49 5 57 10 8 5 28 10
45 12 37 4 99 21 143 40 17 8 34 14 38 14 4 0 21 10 38 22 18 13 37 22 43 20
24 -5 58 45 60 87 1 23 -2 44 -7 46 -4 3 -34 7 -67 9 -33 2 -64 6 -71 10 -6 4
-48 8 -94 9 -50 1 -87 7 -95 14 -9 8 -19 10 -30 4 -9 -4 -23 -6 -29 -4 -7 3
-13 0 -13 -7 0 -7 -7 -6 -21 4 -15 10 -28 12 -44 6 -12 -5 -26 -5 -31 -1 -14
13 -117 24 -110 12 12 -19 -13 -21 -26 -2 -12 17 -26 20 -99 20 -47 0 -98 5
-113 11 -15 5 -30 9 -34 8 -15 -4 -118 13 -132 22 -10 7 18 8 80 5 207 -11
472 0 575 23 22 5 57 8 78 7 22 -1 44 3 50 9 13 12 35 17 87 19 23 1 34 7 32
15 -2 10 2 10 18 2 13 -7 20 -7 20 0 0 5 13 10 28 10 16 0 44 7 62 16 18 9 40
18 49 18 9 1 33 10 55 19 21 9 40 17 42 17 13 0 155 74 165 86 6 8 17 14 23
14 19 0 74 44 154 122 168 163 189 343 60 514 -54 72 -155 163 -206 185 -24
10 -50 26 -58 34 -9 8 -22 15 -30 15 -9 0 -31 12 -50 26 -19 15 -34 23 -34 20
0 -4 -11 1 -25 10 -14 9 -25 13 -25 9 0 -4 -7 -2 -15 5 -8 7 -15 9 -15 5 0 -4
-6 -3 -12 3 -13 10 -77 27 -90 24 -5 -1 -8 3 -8 8 0 6 -13 10 -29 10 -17 0
-32 4 -35 9 -3 5 -15 7 -27 4 -12 -4 -25 0 -30 8 -8 12 -11 12 -19 -1 -9 -12
-10 -12 -8 5 3 17 -3 20 -38 21 -22 0 -46 -2 -52 -4z m42 -21 c-8 -8 -44 -8
-44 1 0 4 11 7 25 6 13 -1 22 -4 19 -7z m-520 -766 c-4 -8 -11 -12 -16 -9 -6
4 -5 10 3 15 19 12 19 11 13 -6z m-177 -31 c-3 -3 -12 -4 -19 -1 -8 3 -5 6 6
6 11 1 17 -2 13 -5z"/>
<path d="M1270 2670 c0 -5 5 -10 11 -10 5 0 7 5 4 10 -3 6 -8 10 -11 10 -2 0
-4 -4 -4 -10z"/>
<path d="M1430 2650 c0 -5 5 -10 11 -10 5 0 7 5 4 10 -3 6 -8 10 -11 10 -2 0
-4 -4 -4 -10z"/>
<path d="M1595 2601 c-7 -12 12 -24 25 -16 11 7 4 25 -10 25 -5 0 -11 -4 -15
-9z"/>
<path d="M1655 2581 c-7 -12 12 -24 25 -16 11 7 4 25 -10 25 -5 0 -11 -4 -15
-9z"/>
<path d="M2190 2556 c0 -4 59 -36 67 -36 13 0 -2 19 -22 28 -27 12 -45 15 -45
8z"/>
<path d="M1136 2387 c-18 -18 -22 -31 -18 -60 3 -26 9 -37 21 -37 14 0 14 -2
1 -11 -24 -17 49 -2 87 18 30 16 47 52 36 79 -5 14 -56 34 -85 34 -10 0 -29
-10 -42 -23z"/>
</g>
</svg>
